[img]http://img14.imageshack.us/img14/6150/finaluo.jpg[/img]
[code]
Final Destination 5 2011 TS XViD - IMAGiNE

Ripper ...........: IMAGiNE                                        IMDB Rating.......:6.8/10                             
Video Codec.......: XVID                                         Release Date......:15/08/11
Audio Codec.......:MP3                                           Theatre Date......:12/08/11
Audio Bitrate.....:128                                              Runtime.......:1h 26mn
Subtitles.........:NIL                                                 Language..........:ENGLISH
Resolution...... 720 x 256                                      IMDb URL.......... http://www.imdb.com/title/tt1622979/

DETAILS:

Video
ID                               : 0
Format                           : MPEG-4 Visual
Format profile                   : Advanced Simple@L5
Format settings, BVOP            : 2
Format settings, QPel            : No
Format settings, GMC             : No warppoints
Format settings, Matrix          : Default (MPEG)
Muxing mode                      : Packed bitstream
Codec ID                         : XVID
Codec ID/Hint                    : XviD
Duration                         : 1h 26mn
Bit rate                         : 2 125 Kbps
Width                            : 720 pixels
Height                           : 256 pixels
Display aspect ratio             : 2.813
Frame rate                       : 29.970 fps
Color space                      : YUV
Chroma subsampling               : 4:2:0
Bit depth                        : 8 bits
Scan type                        : Progressive
Compression mode                 : Lossy
Bits/(Pixel*Frame)               : 0.385
Stream size                      : 1.28 GiB (94%)
Writing library                  : XviD 6

Audio
ID                               : 1
Format                           : MPEG Audio
Format version                   : Version 1
Format profile                   : Layer 3
Codec ID                         : 55
Codec ID/Hint                    : MP3
Duration                         : 1h 26mn
Bit rate mode                    : Constant
Bit rate                         : 128 Kbps
Channel(s)                       : 2 channels
Sampling rate                    : 44.1 KHz
Compression mode                 : Lossy
Stream size                      : 79.2 MiB (6%)
Alignment                        : Split accross interleaves
Interleave, duration             : 33 ms (1.00 video frame)
Interleave, preload duration     : 500 ms

Plot:
Survivors of a suspension-bridge collapse learn there's no way you can cheat Death.

SOURCES:
VIDEO: ......... Thanks Matey 
AUDIO: ......... Thanks Mate 

NOTES:
IMAGiNE bringing you another release..........
First we made a script to crop resize adn so on....
We have done our normal things of adjusting the gamma,brightness, croma, and rgb colors a bit. 
Audio is nice LiNE we filtered synced and muxed to our encode.
Enjoy!
[/code]
Screens:
[img]http://img705.imageshack.us/img705/7107/29329204.png[/img]
[img]http://img225.imageshack.us/img225/3420/13467795.png[/img]
[img]http://img814.imageshack.us/img814/4029/62371231.png[/img]
[img]http://img195.imageshack.us/img195/2866/69875762.png[/img]
[img]http://img21.imageshack.us/img21/2668/79396208.png[/img]